<svg xmlns="http://www.w3.org/2000/svg" viewBox="0 0 1866.81 211.86"><defs><linearGradient id="a" x1="98.64" y1="271.798" x2="115.687" y2="271.798"><stop offset="0%" stop-color="#5e2ca5"><animate attributeName="stop-color" values="#5E2CA5; #45B9FF; #ff0099; #5E2CA5" dur="2.0s" repeatCount="indefinite"/></stop><stop offset="100%" stop-color="#45b9ff"><animate attributeName="stop-color" values="#45B9FF; #ff0099; #5E2CA5; #45B9FF" dur="2.0s" repeatCount="indefinite"/></stop></linearGradient><clipPath id="b" transform="translate(-31.14 -448.26)"><path fill="none" d="M810 589h70v70h-70z"/></clipPath></defs><g fill="url(#a)"><path d="M906.78 211.06q-13.24 0-21-7.09t-7.49-14.92q.29-7.83 5.19-25.87t10-43q5.07-25 7.6-42.18T905 49.89a135.51 135.51 0 014.32-21q2.94-10.09 12.39-18.44a35.34 35.34 0 0122.93-8.82q13.49-.45 43.21 0t70.53 1.39l-.81 31.57-1 7.26-1 5.3-38.49-.92q-44.25 0-47.54 1.78a15 15 0 00-5.7 6.11q-2.42 4.32-4.67 15.21t-5.24 28q-3 17.12-5.53 28.76t-3.17 17.11a38.14 38.14 0 00-.35 7.83q.29 2.37 4 7.26t25.4 4.9h60l-3.92 15.9-10.83 32H906.78zM1051.98 186.28q15-41.94 19.07-55.94t7.72-31.52q3.63-17.52 6.86-45.52t5-35.32q1.72-7.31 9.16-11.81t20.74-4.95q13.32-.47 50.71-.46t55.6.46q18.21.45 25.81 7.89t5.71 32.38a502.56 502.56 0 01-6.86 52q-5 27.08-10.14 46.38t-9.91 33.71q-4.72 14.4-10.32 20.8a55 55 0 01-14.4 11.41 36.9 36.9 0 01-18.49 5h-113.73q-15.27 0-19.71-5.25a15.81 15.81 0 01-4.09-11.4q.35-6.12 1.27-7.86zm66.72-33.88a32.6 32.6 0 00-.81 4.73 14 14 0 00.75 6.86c.81 2.11 2.86 3.43 6.17 4s10.17.63 20.62.29 16.85-.62 19.19-.81a11.94 11.94 0 006.91-3.28 28.66 28.66 0 005.71-6.86q2.3-3.85 4.72-12.62t5.3-20.45q2.88-11.7 6.11-28.18t5.42-31.63q2.17-15.15-.06-19.64t-8.59-4.79q-6.33-.28-19.36-.29t-17.68.29a11.28 11.28 0 00-7.49 3.06 13.91 13.91 0 00-3.81 7.14q-1 4.38-3.74 21.43t-5 27.66q-2.25 10.61-4.5 19.07t-9.86 34.02zM1300.08 4.33l-.35-2.54h64.76q69.38 2.54 75.37 4.32a20.9 20.9 0 019.56 5.65q3.57 3.87 5.59 12.16a116.54 116.54 0 012.71 20.45q.69 12.17-2 33a458.51 458.51 0 01-9.62 49q-6.92 28.23-9 36.07a65.49 65.49 0 01-5.7 14.35 116.9 116.9 0 01-8.76 13.48 45.72 45.72 0 01-11.87 11.29 57.22 57.22 0 01-16.48 6.92q-9.79 2.58-141.5 3.39 16.59-36.4 20.51-56t9-39.93a464.67 464.67 0 008.81-46.84q3.67-26.51 8.97-64.77zm28 160.06q39.87 0 45.46-1.61a18.79 18.79 0 009.33-6q3.75-4.44 7.26-19.19t6.69-29a145.4 145.4 0 003.51-28 156.81 156.81 0 00-.57-21.32q-.93-7.6-4-12.09t-13.19-5.31q-10.15-.79-31.46-.8-1.85 18.56-2.88 28.23t-2.31 20.51a214 214 0 01-4.55 24.55q-3.29 13.71-5.76 25.81a130.74 130.74 0 01-7.53 24.22zM1455.76 209.91q14.52-34.45 22.76-57.79t13.42-44.08q5.19-20.74 9.28-42.29t10.54-62.23h55.43l95.07.12q-1.38 27.77-5.19 43.21l-96.91-.81q-2.88 20.64-5.76 34.57l96.91.81a393.83 393.83 0 01-11.75 42.32h-97.37q-11.19 34.46-15.33 43.1l99.33.81q-8.88 21.54-19.36 43.21h-151.65zM1819.09 2.6q28.93 0 38.72 7.37t8.93 20.46a261 261 0 01-3.63 28.63h-53.12q6.11-20.62-10.83-20.62h-29.91q-13 0-14.57 6.57t-4 17.05q-2.41 10.48-.57 14.81t7.72 7q5.88 2.65 26.5 1.44t35.55 3.69q14.93 4.89 21.67 20.68t-1.56 43.91q-8.29 28.11-17.28 39.12t-40 18.38h-66.61q-65.45 2.41-47.82-46.56l8.53-19.47h52.43l-4.98 14.68q.45 8.07 2.42 10.2t37.91 1.32q19.47-2.29 24.2-21.14t-4.32-23.86q-9.06-5-30-3.86a229.58 229.58 0 01-38.89-.92q-17.92-2.07-24.32-10t-1.27-29.21q5.13-21.32 8.13-35.32t5.24-21.83q2.25-7.84 9.8-13.95t19.82-7.78q12.27-1.67 44.65-1.67t41.46.88z"/></g><g clip-path="url(#b)"><path d="M815.86 142.74a2.19 2.19 0 00-1.17-1.07 2.16 2.16 0 00-1.58 0 2.19 2.19 0 00-1.25 1.07l-8.88 18-19.94 2.9a2.19 2.19 0 00-1.87 2.29 2.16 2.16 0 00.65 1.44l14.44 14.07-3.4 19.88a2.24 2.24 0 00.31 1.56 2.21 2.21 0 001.29.93 2.14 2.14 0 001.57-.18l17.83-9.38 17.84 9.38a2.17 2.17 0 001.58.18 2.22 2.22 0 001.28-.93 2.17 2.17 0 00.31-1.55l-3.4-19.87 14.39-14.07a2.18 2.18 0 00.66-1.44 2.19 2.19 0 00-1.87-2.29l-20-2.9z" fill="#ffd200" fill-rule="evenodd"/></g><g fill="url(#a)"><path d="M0 211.17q12.33-32.37 19.77-54.68t13.71-49.43a457.45 457.45 0 008.93-49.9q2.65-22.76 4.38-38.49t1.27-14.93h103.8q39.42 0 46.61 9.22t6.63 24.95q-.57 15.74-1.79 27.54t-6.68 28.58q-5.47 16.77-8.53 24t-11 14a46.54 46.54 0 01-16.08 9.27q-8.12 2.53-79.34 1.85l-2.42 6.68-13.25 38.6-9.68 22.7H0zM101.06 42.24a362.07 362.07 0 01-5.2 39.93q-3.47 17.93-3.11 20.45 34.56 0 41.48-1.61a16.08 16.08 0 0010.49-7.38q3.57-5.76 5-20t1.56-21.2q.11-6.92-4.9-9.79t-44.88-1.16zM393.3 2.74a230.34 230.34 0 013.56 27q1 14-.63 35a371.51 371.51 0 01-6.51 44.6q-4.85 23.63-10.95 45t-19.47 56.4h-52.2l13.26-38.49 4.5-18.46-52-.81-8.87 28-13 29.73h-53.7q11.76-28.8 17.87-48.51t11.12-38.89a363.45 363.45 0 007.95-39.3q2.94-20.1 6.39-40.27t17.12-31.52Q271.39.88 280.67.41t36.07-.4q26.78.06 76.56 2.73zM278.76 109.42l55 .81q6.69-26.28 7.49-36.24t3.34-34.52q-40-2.64-45.05 2.6t-8.17 15.67q-3 10.43-12 50.76zM555.78 2.6q28.92 0 38.72 7.37t8.93 20.46a265.93 265.93 0 01-3.63 28.63h-53.12q6.1-20.62-10.84-20.62h-29.9q-13 0-14.58 6.57t-4 17.05q-2.41 10.48-.58 14.81t7.72 7q5.88 2.65 26.51 1.44T556.56 89q14.93 4.89 21.66 20.68t-1.55 43.91q-8.29 28.11-17.29 39.12t-40 18.38h-66.62q-65.46 2.41-47.82-46.56l8.52-19.47h52.4l-5 14.75q.46 8.07 2.42 10.2t37.91 1.32q19.49-2.29 24.2-21.14t-4.32-23.86q-9-5-30-3.86a229.63 229.63 0 01-38.89-.92q-17.92-2.07-24.31-10t-1.21-29.21q5.13-21.32 8.12-35.32t5.25-21.83q2.24-7.84 9.79-13.95t19.82-7.78q12.27-1.67 44.65-1.67t41.49.81zM808.72 3.64q-2.19 29.27-4.27 45.63h-57.27q-2.54 31.8-6.39 52t-8.93 39.61q-5.07 19.36-12.62 40.86t-11 29.1h-57.5l19.25-58.31q20.28-68.68 19-103.37h-57.27l2.76-30.88.12-14.63h174.12z"/></g></svg>