<svg id="Logo" xmlns="http://www.w3.org/2000/svg" xmlns:xlink="http://www.w3.org/1999/xlink" viewBox="0 0 1866.81 211.86"><defs><style>.cls-1{fill:none;}.cls-2{clip-path:url(#clip-path);}.cls-3{fill:#ffd200;fill-rule:evenodd;}</style><clipPath id="clip-path" transform="translate(-31.14 -448.26)"><rect class="cls-1" x="810" y="589" width="70" height="70"/></clipPath></defs><g id="Text"><path d="M31.14,659.43q12.33-32.37,19.77-54.68t13.71-49.43a457.45,457.45,0,0,0,8.93-49.9q2.65-22.76,4.38-38.49T79.2,452H183q39.42,0,46.61,9.22t6.63,24.95q-.57,15.74-1.79,27.54t-6.68,28.58q-5.47,16.77-8.53,24t-11,14a46.54,46.54,0,0,1-16.08,9.27q-8.12,2.53-79.34,1.85l-2.42,6.68-13.25,38.6-9.68,22.7H31.14ZM132.2,490.5A362.07,362.07,0,0,1,127,530.43q-3.47,17.93-3.11,20.45,34.56,0,41.48-1.61a16.08,16.08,0,0,0,10.49-7.38q3.57-5.76,5-20t1.56-21.2q.11-6.92-4.9-9.79t-44.88-1.16Z" transform="translate(-31.14 -448.26)"/><path d="M424.44,451A230.34,230.34,0,0,1,428,478q1,14-.63,35a371.51,371.51,0,0,1-6.51,44.6q-4.85,23.63-10.95,45T390.44,659h-52.2l13.26-38.49L356,602.05l-52-.81-8.87,28-13,29.73h-53.7q11.76-28.8,17.87-48.51t11.12-38.89a363.45,363.45,0,0,0,7.95-39.3q2.94-20.1,6.39-40.27t17.12-31.52q13.65-11.34,22.93-11.81t36.07-.4Q374.66,448.33,424.44,451ZM309.9,557.68l55,.81q6.69-26.28,7.49-36.24t3.34-34.52q-40-2.64-45.05,2.6T322.51,506q-3,10.43-12,50.76Z" transform="translate(-31.14 -448.26)"/><path d="M586.92,450.86q28.92,0,38.72,7.37t8.93,20.46a265.93,265.93,0,0,1-3.63,28.63H577.82q6.1-20.62-10.84-20.62h-29.9q-13,0-14.58,6.57t-4,17.05q-2.41,10.48-.58,14.81t7.72,7q5.88,2.65,26.51,1.44t35.55,3.69q14.93,4.89,21.66,20.68t-1.55,43.91q-8.29,28.11-17.29,39.12t-40,18.38H483.9q-65.46,2.41-47.82-46.56l8.52-19.47H497l-5,14.75q.46,8.07,2.42,10.2t37.91,1.32q19.49-2.29,24.2-21.14t-4.32-23.86q-9-5-30-3.86a229.63,229.63,0,0,1-38.89-.92q-17.92-2.07-24.31-10T457.8,530.6q5.13-21.32,8.12-35.32t5.25-21.83q2.24-7.84,9.79-13.95t19.82-7.78q12.27-1.67,44.65-1.67T586.92,450.86Z" transform="translate(-31.14 -448.26)"/><path d="M839.86,451.9q-2.19,29.27-4.27,45.63H778.32q-2.54,31.8-6.39,52T763,589.14Q757.93,608.5,750.38,630t-11,29.1h-57.5l19.25-58.31q20.28-68.68,19-103.37H662.86l2.76-30.88.12-14.63H839.86Z" transform="translate(-31.14 -448.26)"/><path d="M937.92,659.32q-13.24,0-21-7.09t-7.49-14.92q.29-7.83,5.19-25.87t10-43q5.07-25,7.6-42.18t3.92-28.11a135.51,135.51,0,0,1,4.32-21q2.94-10.09,12.39-18.44a35.34,35.34,0,0,1,22.93-8.82q13.49-.45,43.21,0t70.53,1.39l-.81,31.57-1,7.26-1,5.3-38.49-.92q-44.25,0-47.54,1.78a15,15,0,0,0-5.7,6.11q-2.42,4.32-4.67,15.21t-5.24,28q-3,17.12-5.53,28.76t-3.17,17.11a38.14,38.14,0,0,0-.35,7.83q.29,2.37,4,7.26t25.4,4.9h60l-3.92,15.9-10.83,32H937.92Z" transform="translate(-31.14 -448.26)"/><path d="M1083.12,634.54q15-41.94,19.07-55.94t7.72-31.52q3.63-17.52,6.86-45.52t5-35.32q1.72-7.31,9.16-11.81t20.74-4.95q13.32-.47,50.71-.46t55.6.46q18.21.45,25.81,7.89t5.71,32.38a502.56,502.56,0,0,1-6.86,52q-5,27.08-10.14,46.38t-9.91,33.71q-4.72,14.4-10.32,20.8a55,55,0,0,1-14.4,11.41,36.9,36.9,0,0,1-18.49,5H1105.65q-15.27,0-19.71-5.25a15.81,15.81,0,0,1-4.09-11.4Q1082.2,636.28,1083.12,634.54Zm66.72-33.88a32.6,32.6,0,0,0-.81,4.73,14,14,0,0,0,.75,6.86c.81,2.11,2.86,3.43,6.17,4s10.17.63,20.62.29,16.85-.62,19.19-.81a11.94,11.94,0,0,0,6.91-3.28,28.66,28.66,0,0,0,5.71-6.86q2.3-3.85,4.72-12.62t5.3-20.45q2.88-11.7,6.11-28.18t5.42-31.63q2.17-15.15-.06-19.64t-8.59-4.79q-6.33-.28-19.36-.29t-17.68.29a11.28,11.28,0,0,0-7.49,3.06,13.91,13.91,0,0,0-3.81,7.14q-1,4.38-3.74,21.43t-5,27.66q-2.25,10.61-4.5,19.07T1149.84,600.66Z" transform="translate(-31.14 -448.26)"/><path d="M1331.22,452.59l-.35-2.54h64.76q69.38,2.54,75.37,4.32a20.9,20.9,0,0,1,9.56,5.65q3.57,3.87,5.59,12.16a116.54,116.54,0,0,1,2.71,20.45q.69,12.17-2,33a458.51,458.51,0,0,1-9.62,49q-6.92,28.23-9,36.07a65.49,65.49,0,0,1-5.7,14.35,116.9,116.9,0,0,1-8.76,13.48,45.72,45.72,0,0,1-11.87,11.29,57.22,57.22,0,0,1-16.48,6.92q-9.79,2.58-141.5,3.39,16.59-36.4,20.51-56t9-39.93a464.67,464.67,0,0,0,8.81-46.84Q1325.92,490.85,1331.22,452.59Zm28,160.06q39.87,0,45.46-1.61a18.79,18.79,0,0,0,9.33-6q3.75-4.44,7.26-19.19t6.69-29a145.4,145.4,0,0,0,3.51-28,156.81,156.81,0,0,0-.57-21.32q-.93-7.6-4-12.09t-13.19-5.31q-10.15-.79-31.46-.8-1.85,18.56-2.88,28.23t-2.31,20.51a214,214,0,0,1-4.55,24.55q-3.29,13.71-5.76,25.81A130.74,130.74,0,0,1,1359.22,612.65Z" transform="translate(-31.14 -448.26)"/><path d="M1486.9,658.17q14.52-34.45,22.76-57.79t13.42-44.08q5.19-20.74,9.28-42.29t10.54-62.23h55.43l95.07.12q-1.38,27.77-5.19,43.21l-96.91-.81q-2.88,20.64-5.76,34.57l96.91.81A393.83,393.83,0,0,1,1670.7,572h-97.37q-11.19,34.46-15.33,43.1l99.33.81q-8.88,21.54-19.36,43.21H1486.32Z" transform="translate(-31.14 -448.26)"/><path d="M1850.23,450.86q28.93,0,38.72,7.37t8.93,20.46a261,261,0,0,1-3.63,28.63h-53.12q6.11-20.62-10.83-20.62h-29.91q-13,0-14.57,6.57t-4,17.05q-2.41,10.48-.57,14.81t7.72,7q5.88,2.65,26.5,1.44t35.55,3.69q14.93,4.89,21.67,20.68t-1.56,43.91q-8.29,28.11-17.28,39.12t-40,18.38h-66.61q-65.45,2.41-47.82-46.56l8.53-19.47h52.43L1755.4,608q.45,8.07,2.42,10.2t37.91,1.32q19.47-2.29,24.2-21.14t-4.32-23.86q-9.06-5-30-3.86a229.58,229.58,0,0,1-38.89-.92q-17.92-2.07-24.32-10t-1.27-29.21q5.13-21.32,8.13-35.32t5.24-21.83q2.25-7.84,9.8-13.95t19.82-7.78q12.27-1.67,44.65-1.67T1850.23,450.86Z" transform="translate(-31.14 -448.26)"/></g><g id="Star"><g class="cls-2"><path class="cls-3" d="M847,591a2.19,2.19,0,0,0-1.17-1.07,2.16,2.16,0,0,0-1.58,0A2.19,2.19,0,0,0,843,591L834.12,609l-19.94,2.9a2.19,2.19,0,0,0-1.87,2.29,2.16,2.16,0,0,0,.65,1.44l14.44,14.07L824,649.58a2.24,2.24,0,0,0,.31,1.56,2.21,2.21,0,0,0,1.29.93,2.14,2.14,0,0,0,1.57-.18L845,642.51l17.84,9.38a2.17,2.17,0,0,0,1.58.18,2.22,2.22,0,0,0,1.28-.93,2.17,2.17,0,0,0,.31-1.55l-3.4-19.87L877,615.65a2.18,2.18,0,0,0,.66-1.44,2.19,2.19,0,0,0-1.87-2.29l-20-2.9Z" transform="translate(-31.14 -448.26)"/></g></g></svg>